<?xml version="1.0" standalone="no"?>
<!DOCTYPE svg PUBLIC "-//W3C//DTD SVG 20010904//EN"
 "http://www.w3.org/TR/2001/REC-SVG-20010904/DTD/svg10.dtd">
<svg version="1.0" xmlns="http://www.w3.org/2000/svg"
 width="700.000000pt" height="700.000000pt" viewBox="0 0 700.000000 700.000000"
 preserveAspectRatio="xMidYMid meet">
<metadata>
Created by potrace 1.14, written by Peter Selinger 2001-2017
</metadata>
<g transform="translate(0.000000,700.000000) scale(0.100000,-0.100000)"
fill="#000000" stroke="none">
<path d="M1035 5971 c-19 -3 -22 -6 -142 -137 -209 -229 -423 -551 -557 -837
-25 -55 -46 -101 -46 -103 0 -2 -9 -23 -20 -47 -57 -123 -157 -435 -186 -582
-2 -11 -10 -54 -19 -95 -30 -152 -39 -216 -50 -365 -4 -44 -8 -89 -10 -101 -3
-23 15 -43 269 -305 306 -315 508 -527 508 -534 0 -6 -265 -285 -417 -439 -22
-23 -64 -66 -92 -97 l-53 -56 36 -89 c66 -165 244 -508 301 -579 4 -6 34 -49
65 -95 171 -256 432 -534 708 -755 92 -74 370 -265 386 -265 4 0 15 -6 23 -14
26 -22 298 -158 408 -204 282 -116 583 -199 862 -238 25 -3 57 -8 71 -10 193
-30 742 -23 920 12 8 1 24 3 34 3 11 1 62 45 115 100 124 127 476 492 565 584
37 40 125 131 195 203 182 188 598 618 667 691 32 34 145 150 249 258 105 108
225 233 269 278 43 45 176 183 296 307 120 124 256 266 303 315 l86 90 -33 35
c-18 19 -87 91 -153 160 -67 69 -149 155 -184 191 -35 37 -152 158 -259 269
-107 111 -230 238 -274 283 -132 138 -498 518 -546 568 -25 25 -137 142 -250
259 -113 117 -232 241 -265 275 -78 81 -487 505 -636 659 -64 67 -179 186
-256 265 l-140 145 -1365 0 c-750 1 -1373 -1 -1383 -3z"/>
</g>
</svg>
